<svg xmlns="http://www.w3.org/2000/svg" viewBox="0 0 400 400">
    <!-- Background -->
    <rect width="400" height="400" fill="#f5f5f5"/>
    
    <!-- Outer circle (zodiac ring) -->
    <circle cx="200" cy="200" r="180" fill="#222222"/>
    
    <!-- Equal sign divisions -->
     <g transform="translate(200,200)" stroke="white" stroke-width="1">
        <!-- 12 equal divisions at 30° intervals -->
        <line transform="rotate(0)" x1="0" y1="-180" x2="0" y2="-160"/>
        <line transform="rotate(30)" x1="0" y1="-180" x2="0" y2="-160"/>
        <line transform="rotate(60)" x1="0" y1="-180" x2="0" y2="-160"/>
        <line transform="rotate(90)" x1="0" y1="-180" x2="0" y2="-160"/>
        <line transform="rotate(120)" x1="0" y1="-180" x2="0" y2="-160"/>
        <line transform="rotate(150)" x1="0" y1="-180" x2="0" y2="-160"/>
        <line transform="rotate(180)" x1="0" y1="-180" x2="0" y2="-160"/>
        <line transform="rotate(210)" x1="0" y1="-180" x2="0" y2="-160"/>
        <line transform="rotate(240)" x1="0" y1="-180" x2="0" y2="-160"/>
        <line transform="rotate(270)" x1="0" y1="-180" x2="0" y2="-160"/>
        <line transform="rotate(300)" x1="0" y1="-180" x2="0" y2="-160"/>
        <line transform="rotate(330)" x1="0" y1="-180" x2="0" y2="-160"/>
    </g>

    <!-- Sign names (centered in each 30° section) -->
    <g transform="translate(200,200)" fill="white" font-size="10">
        <text transform="rotate(15)" x="0" y="-170" text-anchor="middle" dominant-baseline="middle">ARIES</text>
        <text transform="rotate(45)" x="0" y="-170" text-anchor="middle" dominant-baseline="middle">TAURUS</text>
        <text transform="rotate(75)" x="0" y="-170" text-anchor="middle" dominant-baseline="middle">GEMINI</text>
        <text transform="rotate(105)" x="0" y="-170" text-anchor="middle" dominant-baseline="middle">CANCER</text>
        <text transform="rotate(135)" x="0" y="-170" text-anchor="middle" dominant-baseline="middle">LEO</text>
        <text transform="rotate(165)" x="0" y="-170" text-anchor="middle" dominant-baseline="middle">VIRGO</text>
        <text transform="rotate(195)" x="0" y="-170" text-anchor="middle" dominant-baseline="middle">LIBRA</text>
        <text transform="rotate(225)" x="0" y="-170" text-anchor="middle" dominant-baseline="middle">SCORPIO</text>
        <text transform="rotate(255)" x="0" y="-170" text-anchor="middle" dominant-baseline="middle">SAGITTARIUS</text>
        <text transform="rotate(285)" x="0" y="-170" text-anchor="middle" dominant-baseline="middle">CAPRICORN</text>
        <text transform="rotate(315)" x="0" y="-170" text-anchor="middle" dominant-baseline="middle">AQUARIUS</text>
        <text transform="rotate(345)" x="0" y="-170" text-anchor="middle" dominant-baseline="middle">PISCES</text>
    </g>

    <!-- Main white circle -->
    <circle cx="200" cy="200" r="160" fill="white" stroke="#222222" stroke-width="1"/>

    <!-- Outer house number circle -->
    <circle cx="200" cy="200" r="60" fill="white" stroke="#222222" stroke-width="1"/>
    
    <!-- Inner house number circle -->
    <circle cx="200" cy="200" r="40" fill="white" stroke="#222222" stroke-width="1"/>

    <!-- House cusps (dotted lines) -->
    <g transform="translate(200,200)" stroke="#222222" stroke-width="1" stroke-dasharray="4,4">
        <line transform="rotate(311.7)" x1="0" y1="-160" x2="0" y2="-60"/>
        <line transform="rotate(0.58)" x1="0" y1="-160" x2="0" y2="-60"/>
        <line transform="rotate(39.48)" x1="0" y1="-160" x2="0" y2="-60"/>
        <line transform="rotate(62.42)" x1="0" y1="-160" x2="0" y2="-60"/>
        <line transform="rotate(80.2)" x1="0" y1="-160" x2="0" y2="-60"/>
        <line transform="rotate(100.17)" x1="0" y1="-160" x2="0" y2="-60"/>
        <line transform="rotate(131.7)" x1="0" y1="-160" x2="0" y2="-60"/>
        <line transform="rotate(180.58)" x1="0" y1="-160" x2="0" y2="-60"/>
        <line transform="rotate(219.48)" x1="0" y1="-160" x2="0" y2="-60"/>
        <line transform="rotate(242.42)" x1="0" y1="-160" x2="0" y2="-60"/>
        <line transform="rotate(256.17)" x1="0" y1="-160" x2="0" y2="-60"/>
        <line transform="rotate(280.99)" x1="0" y1="-160" x2="0" y2="-60"/>
    </g>

    <!-- Solid lines for house divisions -->
    <g transform="translate(200,200)" stroke="#222222" stroke-width="1">
        <line transform="rotate(311.7)" x1="0" y1="-60" x2="0" y2="-40"/>
        <line transform="rotate(0.58)" x1="0" y1="-60" x2="0" y2="-40"/>
        <line transform="rotate(39.48)" x1="0" y1="-60" x2="0" y2="-40"/>
        <line transform="rotate(62.42)" x1="0" y1="-60" x2="0" y2="-40"/>
        <line transform="rotate(80.2)" x1="0" y1="-60" x2="0" y2="-40"/>
        <line transform="rotate(100.17)" x1="0" y1="-60" x2="0" y2="-40"/>
        <line transform="rotate(131.7)" x1="0" y1="-60" x2="0" y2="-40"/>
        <line transform="rotate(180.58)" x1="0" y1="-60" x2="0" y2="-40"/>
        <line transform="rotate(219.48)" x1="0" y1="-60" x2="0" y2="-40"/>
        <line transform="rotate(242.42)" x1="0" y1="-60" x2="0" y2="-40"/>
        <line transform="rotate(256.17)" x1="0" y1="-60" x2="0" y2="-40"/>
        <line transform="rotate(280.99)" x1="0" y1="-60" x2="0" y2="-40"/>
    </g>

    <!-- House numbers -->
    <g transform="translate(200,200)" fill="#222222" font-size="9">
        <text transform="rotate(0)" x="0" y="-47" text-anchor="middle">1</text>
        <text transform="rotate(30)" x="0" y="-47" text-anchor="middle">2</text>
        <text transform="rotate(60)" x="0" y="-47" text-anchor="middle">3</text>
        <text transform="rotate(90)" x="0" y="-47" text-anchor="middle">4</text>
        <text transform="rotate(120)" x="0" y="-47" text-anchor="middle">5</text>
        <text transform="rotate(150)" x="0" y="-47" text-anchor="middle">6</text>
        <text transform="rotate(180)" x="0" y="-47" text-anchor="middle">7</text>
        <text transform="rotate(210)" x="0" y="-47" text-anchor="middle">8</text>
        <text transform="rotate(240)" x="0" y="-47" text-anchor="middle">9</text>
        <text transform="rotate(270)" x="0" y="-47" text-anchor="middle">10</text>
        <text transform="rotate(300)" x="0" y="-47" text-anchor="middle">11</text>
        <text transform="rotate(330)" x="0" y="-47" text-anchor="middle">12</text>
    </g>
</svg> 